<svg xmlns="http://www.w3.org/2000/svg" viewBox="0 0 200 200"><defs><linearGradient id="plateGradient" x1="0%" x2="100%" y1="0%" y2="100%"><stop offset="0%" style="stop-color:#42a878;stop-opacity:1"/><stop offset="100%" style="stop-color:#2d7a5c;stop-opacity:1"/></linearGradient><pattern id="batikPattern" width="20" height="20" x="0" y="0" patternUnits="userSpaceOnUse"><circle cx="10" cy="10" r="2" fill="#F5F1E8" opacity=".3"/><path stroke="#F5F1E8" stroke-width=".5" d="M 5 5 L 15 15" opacity=".2"/><path stroke="#F5F1E8" stroke-width=".5" d="M 15 5 L 5 15" opacity=".2"/></pattern></defs><circle cx="100" cy="100" r="95" fill="url(#plateGradient)" stroke="#8B7355" stroke-width="2"/><circle cx="100" cy="100" r="93" fill="url(#batikPattern)"/><circle cx="100" cy="100" r="80" fill="#F5F1E8" opacity=".95"/><g transform="translate(100, 100)"><line x1="0" x2="0" y1="0" y2="-45" stroke="#42A878" stroke-linecap="round" stroke-width="3"/><line x1="0" x2="35" y1="0" y2="0" stroke="#8B7355" stroke-linecap="round" stroke-width="2"/><circle cx="0" cy="0" r="5" fill="#8B7355"/><g fill="#42A878" opacity=".7"><ellipse cx="0" cy="-28" rx="3" ry="8" transform="rotate(0)"/><ellipse cx="20" cy="-20" rx="3" ry="8" transform="rotate(45)"/><ellipse cx="28" cy="0" rx="3" ry="8" transform="rotate(90)"/><ellipse cx="20" cy="20" rx="3" ry="8" transform="rotate(135)"/></g><g fill="#8B7355" opacity=".6"><circle cx="-35" cy="-35" r="2"/><circle cx="35" cy="-35" r="2"/><circle cx="-35" cy="35" r="2"/><circle cx="35" cy="35" r="2"/></g></g><circle cx="100" cy="100" r="88" fill="none" stroke="#8B7355" stroke-dasharray="3 2" stroke-width="1" opacity=".5"/><text x="100" y="175" fill="#8B7355" font-family="serif" font-size="14" font-weight="bold" text-anchor="middle">PIRING WAKTU</text></svg>